<svg width="149" height="39" viewBox="0 0 149 39" fill="none" xmlns="http://www.w3.org/2000/svg">
<g clip-path="url(#clip0_49_698)">
<path fill-rule="evenodd" clip-rule="evenodd" d="M37.0415 22.2683C36.7222 22.585 36.346 22.8284 35.9361 22.9836C35.5262 23.1388 35.0911 23.2025 34.6575 23.1708H30.9921V15.9316H34.8363C35.2509 15.9024 35.6665 15.9691 36.0551 16.127C36.4437 16.2849 36.7963 16.5303 37.0891 16.8469C37.6487 17.6229 37.9186 18.5952 37.8461 19.5736C37.9125 20.552 37.6193 21.5193 37.0295 22.2683M34.9972 10.3437H25.4612C25.3716 10.3423 25.2827 10.3603 25.1998 10.3966C25.1169 10.4329 25.0416 10.4867 24.9784 10.5549C24.9165 10.6186 24.8671 10.6951 24.8333 10.7798C24.7995 10.8645 24.782 10.9556 24.7817 11.0477V28.0546C24.782 28.1468 24.7995 28.2379 24.8333 28.3226C24.8671 28.4073 24.9165 28.4838 24.9784 28.5475C25.1082 28.6817 25.281 28.7573 25.4612 28.7587H35.0866C36.2364 28.806 37.3833 28.6037 38.4586 28.1637C39.5339 27.7238 40.5155 27.0553 41.3446 26.1984C42.1541 25.329 42.7899 24.2914 43.2132 23.149C43.6364 22.0066 43.8381 20.7834 43.8061 19.5544C43.8526 18.3259 43.661 17.1004 43.2434 15.9556C42.8258 14.8109 42.1914 13.7717 41.3803 12.904C40.5284 12.0484 39.5276 11.3818 38.4353 10.9424C37.343 10.5031 36.1807 10.2996 35.0151 10.3437" fill="#B62234"/>
<path fill-rule="evenodd" clip-rule="evenodd" d="M92.4754 10.3436H87.3319C87.215 10.3537 87.1014 10.3902 86.9987 10.4509C86.8959 10.5116 86.8064 10.595 86.7359 10.6957L81.056 20.6809L75.3284 10.6957C75.2712 10.5881 75.1835 10.5029 75.0781 10.4524C74.9819 10.3907 74.8739 10.3535 74.7622 10.3436H69.6426C69.464 10.344 69.2927 10.4199 69.1658 10.5549C69.1038 10.6186 69.0545 10.6951 69.0207 10.7798C68.9869 10.8644 68.9693 10.9556 68.9691 11.0477V28.0546C68.9693 28.1467 68.9869 28.2379 69.0207 28.3226C69.0545 28.4073 69.1038 28.4837 69.1658 28.5475C69.2927 28.6824 69.464 28.7583 69.6426 28.7587H74.0172C74.1067 28.7593 74.1954 28.741 74.2782 28.7048C74.3611 28.6685 74.4364 28.6151 74.5 28.5475C74.5629 28.4849 74.6126 28.4085 74.6455 28.3234C74.6784 28.2383 74.6938 28.1467 74.6907 28.0546V18.8823L79.417 28.3554C79.4823 28.4704 79.5722 28.567 79.6792 28.6371C79.7769 28.7074 79.8898 28.7493 80.007 28.7587H82.0632C82.1809 28.7515 82.2943 28.7094 82.391 28.6371C82.5007 28.5706 82.5914 28.4732 82.6533 28.3554L87.4213 18.8823V28.0546C87.4174 28.1462 87.4319 28.2376 87.4638 28.3226C87.4957 28.4076 87.5442 28.4843 87.606 28.5475C87.7351 28.6828 87.9084 28.7586 88.0888 28.7587H92.4575C92.5517 28.7618 92.6456 28.7448 92.7336 28.7085C92.8216 28.6722 92.902 28.6175 92.97 28.5475C93.032 28.4837 93.0814 28.4073 93.1152 28.3226C93.149 28.2379 93.1665 28.1467 93.1667 28.0546V11.0477C93.1682 10.9562 93.1514 10.8655 93.1175 10.7816C93.0836 10.6977 93.0333 10.6225 92.97 10.5613C92.9069 10.4931 92.8316 10.4392 92.7486 10.4029C92.6657 10.3667 92.5768 10.3487 92.4873 10.35" fill="#B62234"/>
<path fill-rule="evenodd" clip-rule="evenodd" d="M109.861 23.8941H101.916V21.9227H108.192C108.365 21.917 108.53 21.8389 108.651 21.705C108.776 21.5687 108.847 21.3848 108.847 21.193V17.7877C108.84 17.6025 108.768 17.427 108.645 17.2965C108.522 17.1659 108.358 17.0899 108.186 17.0837H101.916V15.2082H109.259C109.434 15.2066 109.601 15.1306 109.724 14.997C109.786 14.93 109.835 14.8501 109.868 14.7621C109.901 14.674 109.917 14.5797 109.914 14.4849V11.0477C109.917 10.9557 109.902 10.864 109.869 10.7789C109.836 10.6939 109.787 10.6174 109.724 10.5549C109.601 10.4212 109.434 10.3453 109.259 10.3436H96.5162C96.3437 10.3485 96.1796 10.4242 96.0576 10.5552C95.9356 10.6862 95.8651 10.8625 95.8606 11.0477V28.0546C95.8651 28.2398 95.9356 28.4161 96.0576 28.5471C96.1796 28.6781 96.3437 28.7538 96.5162 28.7587H109.855C109.942 28.7591 110.029 28.7406 110.11 28.7043C110.191 28.668 110.264 28.6147 110.326 28.5475C110.387 28.4843 110.436 28.4076 110.468 28.3226C110.5 28.2376 110.514 28.1462 110.51 28.0546V24.6238C110.513 24.5294 110.499 24.4354 110.467 24.3474C110.435 24.2594 110.387 24.1792 110.326 24.1117C110.265 24.0424 110.192 23.9873 110.111 23.9499C110.03 23.9124 109.943 23.8934 109.855 23.8941" fill="#B62234"/>
<path fill-rule="evenodd" clip-rule="evenodd" d="M125.702 18.9399C124.826 17.999 123.211 17.2821 120.851 16.7764C120.274 16.6755 119.703 16.5388 119.14 16.3668C118.658 16.2259 118.246 16.0851 117.919 15.9571C117.591 15.8291 117.37 15.6371 117.37 15.3746C117.37 15.1122 117.549 14.9202 117.907 14.805C118.404 14.678 118.916 14.6242 119.427 14.6449C120.413 14.6649 121.391 14.8307 122.335 15.1378C122.871 15.3106 123.39 15.4963 123.885 15.7011C124.367 15.8889 124.841 16.1025 125.303 16.3412C125.406 16.4109 125.526 16.4452 125.647 16.4395C125.769 16.4337 125.886 16.3883 125.983 16.3092C126.082 16.2314 126.159 16.1256 126.205 16.0035C126.251 15.8814 126.265 15.7479 126.245 15.6179L125.81 11.5214C125.787 11.3827 125.732 11.2527 125.649 11.1437C125.566 11.0339 125.453 10.9536 125.327 10.9133C124.987 10.798 124.64 10.704 124.29 10.6317L122.836 10.3116C121.76 10.0998 120.669 9.99274 119.576 9.99158C117.239 9.99158 115.421 10.4994 114.122 11.515C113.475 12.029 112.958 12.7075 112.615 13.4895C112.273 14.2716 112.117 15.1327 112.161 15.9955C112.126 16.7406 112.251 17.4844 112.528 18.1686C112.806 18.8527 113.227 19.4585 113.759 19.9384C114.736 20.8217 116.486 21.5343 119.009 22.0763C119.899 22.2135 120.765 22.485 121.584 22.8828C121.816 23.0556 121.93 23.2284 121.93 23.4012C121.93 23.7213 121.733 23.9773 121.334 24.1501C120.825 24.3435 120.287 24.4304 119.748 24.4062C118.529 24.3811 117.321 24.1433 116.172 23.7021C115.158 23.333 114.164 22.9057 113.192 22.4219C113.088 22.3586 112.97 22.3285 112.85 22.3353C112.731 22.3421 112.616 22.3855 112.519 22.4603C112.421 22.5274 112.343 22.6236 112.296 22.7374C112.248 22.8511 112.232 22.9772 112.251 23.1004L112.596 27.5809C112.62 27.7287 112.682 27.8663 112.775 27.9778C112.867 28.0939 112.99 28.1766 113.127 28.2146C113.288 28.2146 113.514 28.2978 113.812 28.3682C114.11 28.4386 114.474 28.5091 114.897 28.5859C115.009 28.6134 115.122 28.6348 115.237 28.6499L115.618 28.7203C116.246 28.827 116.878 28.9102 117.513 28.9699C118.145 29.0211 118.783 29.0531 119.421 29.0531C120.509 29.0646 121.595 28.9269 122.651 28.6435C123.521 28.4056 124.344 27.9977 125.077 27.4401C125.739 26.9319 126.275 26.2572 126.638 25.4751C127.009 24.6337 127.19 23.7108 127.169 22.7804C127.188 22.0662 127.068 21.3556 126.817 20.6942C126.565 20.0328 126.188 19.4352 125.708 18.9399" fill="#B62234"/>
<path fill-rule="evenodd" clip-rule="evenodd" d="M13.6484 10.4652C13.5841 10.3327 13.4787 10.2285 13.3504 10.1707C13.2323 10.0911 13.0965 10.0469 12.957 10.0427H9.73864C9.60426 10.0444 9.47268 10.0841 9.3572 10.1579C9.23708 10.2229 9.13449 10.3199 9.0592 10.4396L0.1192 27.7217C0.0524566 27.8335 0.0115852 27.9608 0 28.0929C0.0021421 28.2182 0.0418544 28.3395 0.11324 28.4386C0.190842 28.5491 0.293434 28.6365 0.411293 28.6925C0.529153 28.7485 0.658377 28.7713 0.78672 28.7586H6.15072C6.29592 28.7557 6.43781 28.7115 6.56196 28.6306C6.68622 28.5663 6.78993 28.4638 6.85996 28.3362L11.1154 19.2023L13.7974 24.7069H10.4658C10.2691 24.7069 9.60156 24.9438 9.86976 25.5198L11.4372 28.1634C11.5505 28.3651 11.7119 28.5308 11.9046 28.6433C12.0974 28.7558 12.3146 28.8111 12.5339 28.8034H21.8434C21.9693 28.812 22.0953 28.7887 22.2113 28.7353C22.3272 28.6819 22.4299 28.6 22.5109 28.4962C22.575 28.3917 22.6092 28.2693 22.6092 28.1442C22.6092 28.019 22.575 27.8966 22.5109 27.7921L13.6484 10.4652Z" fill="#B62234"/>
<path fill-rule="evenodd" clip-rule="evenodd" d="M57.4425 10.4652C57.3782 10.3327 57.2727 10.2286 57.1445 10.1708C57.0263 10.0911 56.8905 10.0469 56.7511 10.0428H53.5327C53.3979 10.0415 53.2656 10.0814 53.1513 10.158C53.03 10.2212 52.927 10.3185 52.8533 10.4396L43.9133 27.7217C43.8466 27.8276 43.811 27.9524 43.811 28.0802C43.811 28.2079 43.8466 28.3328 43.9133 28.4386C43.9922 28.5492 44.0959 28.6365 44.2147 28.6925C44.3334 28.7484 44.4635 28.7712 44.5927 28.7587H49.9567C50.0994 28.7516 50.2384 28.7077 50.362 28.6306C50.4787 28.5619 50.5756 28.46 50.6421 28.3362L54.9214 19.2023L57.6034 24.707H54.236C54.0393 24.707 53.3718 24.9438 53.64 25.5199L55.2313 28.1634C55.3455 28.3642 55.507 28.5292 55.6996 28.6416C55.8921 28.754 56.1089 28.8098 56.3279 28.8035H65.6315C65.7566 28.8131 65.8821 28.7902 65.9973 28.7367C66.1124 28.6833 66.2139 28.6008 66.2931 28.4962C66.3637 28.3945 66.4018 28.2711 66.4018 28.1442C66.4018 28.0173 66.3637 27.8938 66.2931 27.7921L57.4425 10.4652Z" fill="#B62234"/>
<path fill-rule="evenodd" clip-rule="evenodd" d="M27.3445 34.2633C27.3356 34.9043 27.3594 35.5453 27.416 36.1835C27.2134 35.6472 26.9826 35.1236 26.7246 34.6153L25.8306 32.9319H24.6923V37.5213H25.5863V36.1323C25.5863 35.3834 25.5863 34.737 25.5445 34.1225C25.764 34.6792 26.0127 35.222 26.2895 35.7483L27.2014 37.5149H28.2146V32.9255H27.3206L27.3445 34.2633Z" fill="#4F4C4D"/>
<path fill-rule="evenodd" clip-rule="evenodd" d="M35.1283 35.5563C35.1283 36.3756 34.8541 36.7596 34.3416 36.7596C33.829 36.7596 33.5727 36.3564 33.5727 35.5563V32.9255H32.6132V35.4859C32.6132 36.9452 33.239 37.5853 34.3177 37.5853C35.3965 37.5853 36.1057 36.9452 36.1057 35.4987V32.9383H35.164L35.1283 35.5563Z" fill="#4F4C4D"/>
<path fill-rule="evenodd" clip-rule="evenodd" d="M40.1525 33.8024H41.3087V37.5149H42.2683V33.8024H43.4603V32.9255H40.1823L40.1525 33.8024Z" fill="#4F4C4D"/>
<path fill-rule="evenodd" clip-rule="evenodd" d="M49.0269 34.9483H48.4309V33.6681C48.575 33.6297 48.724 33.6168 48.872 33.6297H49.0031C49.0781 33.6245 49.1534 33.6356 49.2243 33.6623C49.2953 33.689 49.3605 33.7308 49.4162 33.7851C49.4718 33.8395 49.5166 33.9053 49.5481 33.9787C49.5795 34.052 49.5968 34.1315 49.5991 34.2122V34.2698C49.5991 34.4395 49.5363 34.6023 49.4245 34.7224C49.3127 34.8424 49.1611 34.9099 49.0031 34.9099M49.7898 35.3195C50.0059 35.2365 50.1935 35.085 50.3276 34.8849C50.4617 34.6849 50.536 34.4458 50.5408 34.1994C50.5499 34.0168 50.5185 33.8345 50.449 33.6675C50.3796 33.5006 50.2742 33.3538 50.1414 33.2393C49.8095 32.9925 49.4125 32.8669 49.009 32.8808H48.7706C48.3398 32.8741 47.9091 32.9062 47.4833 32.9768V37.5086H48.4548V35.7036H48.7349C48.8365 35.6981 48.938 35.7155 49.0329 35.7548C49.2415 35.8252 49.3607 36.0236 49.4501 36.4332C49.5175 36.801 49.6172 37.1611 49.7481 37.5086H50.7315C50.654 37.3294 50.5229 36.7277 50.3918 36.2284C50.364 36.0453 50.2953 35.8722 50.1915 35.7239C50.0877 35.5756 49.9519 35.4566 49.7958 35.3771" fill="#4F4C4D"/>
<path fill-rule="evenodd" clip-rule="evenodd" d="M54.832 37.5149H55.7976V32.9255H54.832V37.5149Z" fill="#4F4C4D"/>
<path fill-rule="evenodd" clip-rule="evenodd" d="M62.3297 33.7129C62.6059 33.7128 62.8794 33.7715 63.1343 33.8858L63.3309 33.0665C63.0025 32.9132 62.6456 32.8432 62.2879 32.8616C61.7126 32.8158 61.1438 33.0173 60.7068 33.4218C60.2698 33.8264 60.0003 34.4008 59.9576 35.0187C59.9576 35.1083 59.9576 35.1979 59.9576 35.2875C59.923 35.8486 60.0957 36.4017 60.4382 36.827C60.7807 37.2523 61.2654 37.5156 61.7873 37.5598L61.537 38.1231C61.8886 38.1615 62.0376 38.2383 62.0376 38.3727C62.0376 38.5071 61.9363 38.5391 61.8111 38.5391C61.6872 38.5384 61.565 38.5077 61.4535 38.4495L61.3224 38.872C61.494 38.9582 61.6813 39.002 61.8707 39C62.2283 39 62.6277 38.8464 62.6277 38.3599C62.6256 38.2232 62.5773 38.0919 62.4918 37.9907C62.4062 37.8894 62.2893 37.825 62.1628 37.8094L62.282 37.5726C62.6223 37.5802 62.9607 37.515 63.2773 37.3806L63.1402 36.5613C62.8823 36.67 62.6067 36.7222 62.3297 36.7149C61.9732 36.6899 61.639 36.5203 61.3947 36.2403C61.1505 35.9604 61.0146 35.5911 61.0146 35.2075C61.0146 34.8239 61.1505 34.4546 61.3947 34.1747C61.639 33.8948 61.9732 33.7251 62.3297 33.7001" fill="#4F4C4D"/>
<path fill-rule="evenodd" clip-rule="evenodd" d="M69.136 35.5563H68.6652L68.9155 34.5961C68.987 34.3337 69.0526 33.9881 69.1122 33.7192V33.7576C69.1718 34.0201 69.2492 34.3465 69.3208 34.5961L69.589 35.5563H69.136ZM69.136 32.9255H68.54L67.2407 37.5149H68.242L68.54 36.3372H69.732L70.0598 37.5149H71.0968L69.7737 32.9255H69.136Z" fill="#4F4C4D"/>
<path fill-rule="evenodd" clip-rule="evenodd" d="M68.9333 32.3559C69.0113 32.3636 69.0856 32.3946 69.1479 32.4455L69.2075 32.4839C69.3322 32.5626 69.4741 32.6045 69.6187 32.6055C69.9465 32.6055 70.1194 32.3687 70.1134 31.7606H69.6843C69.6843 31.9846 69.6187 32.0487 69.5115 32.0487C69.4104 32.0289 69.3147 31.9851 69.2313 31.9206L69.136 31.8758C69.037 31.8185 68.9266 31.7878 68.8141 31.7862C68.5161 31.7862 68.3075 32.0807 68.3195 32.6503H68.7665C68.7665 32.4519 68.838 32.3559 68.9155 32.3559" fill="#4F4C4D"/>
<path fill-rule="evenodd" clip-rule="evenodd" d="M76.9436 36.766C76.3058 36.766 75.9125 36.1259 75.9125 35.2298C75.9125 34.3337 76.288 33.6744 76.9436 33.668C77.6111 33.668 77.9746 34.3785 77.9746 35.2042C77.9746 36.0299 77.5992 36.7596 76.9436 36.7596M76.9436 32.8423C76.6733 32.8423 76.4057 32.8997 76.1562 33.0112C75.9067 33.1226 75.6801 33.2859 75.4896 33.4918C75.2991 33.6976 75.1483 33.9418 75.046 34.2105C74.9436 34.4791 74.8918 34.7668 74.8933 35.057C74.8904 35.1188 74.8904 35.1808 74.8933 35.2426C74.8435 35.8061 75.0037 36.3677 75.3389 36.8045C75.6741 37.2412 76.1568 37.5174 76.6813 37.5725H76.8899H76.9316C78.1594 37.5725 78.9819 36.6508 78.9819 35.1594C79.0301 34.597 78.8691 34.037 78.534 33.6017C78.199 33.1663 77.7173 32.8911 77.1939 32.8359H76.9674" fill="#4F4C4D"/>
<path fill-rule="evenodd" clip-rule="evenodd" d="M89.6086 35.5563H89.1378L89.3881 34.5961C89.4477 34.3337 89.5192 33.9881 89.5848 33.7192V33.7576C89.6444 34.0201 89.7159 34.3465 89.7874 34.5961L90.0616 35.5563H89.6086ZM89.6086 32.9255H89.0126L87.7074 37.5149H88.7087L89.0067 36.3372H90.2285L90.5622 37.5149H91.6052L90.2762 32.9255H89.6086Z" fill="#4F4C4D"/>
<path fill-rule="evenodd" clip-rule="evenodd" d="M98.34 34.2633C98.34 34.9034 98.3638 35.5435 98.4115 36.1835C98.2214 35.6456 97.9984 35.1217 97.744 34.6153L96.85 32.9319H95.7235V37.5213H96.6175V36.1323C96.6175 35.3834 96.6175 34.737 96.5698 34.1225H96.5996C96.8215 34.678 97.0702 35.2206 97.3446 35.7483L98.2565 37.5149H99.2518V32.9255H98.34V34.2633Z" fill="#4F4C4D"/>
<path fill-rule="evenodd" clip-rule="evenodd" d="M103.632 37.5149H104.598V32.9255H103.638L103.632 37.5149Z" fill="#4F4C4D"/>
<path fill-rule="evenodd" clip-rule="evenodd" d="M112.096 32.9255L111.649 34.4489C111.5 34.961 111.351 35.5691 111.243 36.1003H111.214C111.118 35.5563 110.993 34.9866 110.856 34.4617L110.433 32.9255H109.151L108.877 37.5149H109.771L109.855 35.7675C109.884 35.1978 109.902 34.4873 109.926 33.8473C110.033 34.4489 110.171 35.1274 110.314 35.6459L110.767 37.4125H111.523L112.042 35.6203C112.209 35.0826 112.382 34.4297 112.525 33.8408C112.525 34.5193 112.525 35.1786 112.56 35.7611L112.632 37.5149H113.568L113.341 32.9255H112.096Z" fill="#4F4C4D"/>
<path fill-rule="evenodd" clip-rule="evenodd" d="M119.468 35.5563H118.997L119.248 34.5961C119.319 34.3337 119.379 33.9881 119.444 33.7192V33.7576C119.504 34.0201 119.581 34.3465 119.653 34.5961L119.915 35.5563H119.468ZM119.468 32.9255H118.872L117.573 37.5149H118.562L118.86 36.3372H120.094L120.422 37.5149H121.465L120.136 32.9255H119.468Z" fill="#4F4C4D"/>
<path fill-rule="evenodd" clip-rule="evenodd" d="M126.531 36.638V32.9255H125.571V37.5149H128.229V36.638H126.531Z" fill="#4F4C4D"/>
<path fill-rule="evenodd" clip-rule="evenodd" d="M149 1.04328C148.978 0.900049 148.929 0.763001 148.857 0.640034C148.787 0.523557 148.698 0.42163 148.595 0.339197C148.478 0.255886 148.349 0.195221 148.213 0.159975H148.118H147.808L130.572 -4.50556e-05C130.348 -0.0089616 130.126 0.0462665 129.928 0.159975C129.763 0.256286 129.636 0.413062 129.57 0.601629C129.492 0.817742 129.476 1.05387 129.523 1.28011C129.583 1.56888 129.69 1.84405 129.839 2.09301L131.031 4.09006C132.457 3.20698 134.007 2.57592 135.62 2.22103C136.47 2.02663 137.337 1.92583 138.206 1.92019C139.04 1.91452 139.871 2.02205 140.68 2.24023C141.038 2.33495 141.389 2.45907 141.729 2.61148C142.077 2.74513 142.415 2.90557 142.742 3.09154C143.072 3.29525 143.385 3.52865 143.678 3.78922C143.985 4.05478 144.27 4.34816 144.53 4.66613C144.766 4.94041 144.979 5.23593 145.168 5.54944C145.346 5.8337 145.501 6.13345 145.633 6.44555C145.758 6.73345 145.864 7.03081 145.948 7.33526C146.026 7.62509 146.086 7.92018 146.127 8.21857L148.839 1.92019C148.839 1.92019 148.839 1.84978 148.881 1.81138L148.917 1.70256C148.917 1.67056 148.917 1.63856 148.917 1.60015C148.917 1.56175 148.917 1.53614 148.917 1.50414C148.917 1.47214 148.917 1.31852 148.946 1.22891V1.04328" fill="#1C63B7"/>
<path fill-rule="evenodd" clip-rule="evenodd" d="M143.32 13.0319L142.796 12.7119C142.629 12.5903 142.474 12.4687 142.319 12.3343C142.171 12.2057 142.032 12.0667 141.902 11.9182C142.029 11.7686 142.144 11.608 142.247 11.4381C142.461 11.0947 142.622 10.7165 142.724 10.318C142.849 9.81477 142.849 9.28506 142.724 8.78182C142.52 8.10474 142.144 7.50198 141.639 7.0408C141.465 6.87112 141.28 6.71497 141.085 6.57355C140.896 6.42834 140.697 6.2999 140.489 6.1895C140.297 6.07573 140.098 5.97731 139.893 5.89506C139.684 5.80544 139.469 5.73478 139.249 5.68384C138.714 5.53685 138.163 5.45949 137.61 5.45341C137.07 5.44508 136.529 5.48792 135.995 5.58142C135.495 5.66469 135.003 5.79316 134.523 5.96547C134.112 6.11198 133.713 6.29615 133.331 6.51594H133.194L133.015 6.46473L132.729 6.40072L132.449 6.27911L132.133 6.11269L139.464 18.6582C139.531 18.7763 139.604 18.8896 139.684 18.9975C139.76 19.0912 139.842 19.1789 139.929 19.2599C140.004 19.329 140.086 19.3891 140.173 19.4391C140.253 19.4837 140.337 19.518 140.424 19.5415C140.522 19.5607 140.623 19.5607 140.722 19.5415C140.827 19.5235 140.928 19.4844 141.02 19.4263C141.107 19.3648 141.186 19.2892 141.252 19.2023C141.336 19.091 141.406 18.9683 141.461 18.8375L143.845 13.3392C143.654 13.2432 143.469 13.1472 143.29 13.0383" fill="#D3D2D2"/>
<path fill-rule="evenodd" clip-rule="evenodd" d="M140.656 19.5672H140.453C140.367 19.5415 140.283 19.5072 140.203 19.4648C140.117 19.4132 140.035 19.3532 139.959 19.2856C139.875 19.2029 139.795 19.1153 139.72 19.0231C139.636 18.9067 139.558 18.7848 139.488 18.6583L132.127 6.02954L129.535 7.56573L136.275 19.1576C136.337 19.2697 136.407 19.3766 136.484 19.4776C136.55 19.5643 136.624 19.6437 136.705 19.7144C136.774 19.7791 136.85 19.8349 136.931 19.8808C137.003 19.9259 137.082 19.9583 137.163 19.9769H137.42L140.698 19.5544H140.656" fill="#7B7979"/>
<path fill-rule="evenodd" clip-rule="evenodd" d="M129.839 2.07377C129.732 1.89361 129.646 1.70016 129.582 1.4977C129.523 1.33439 129.493 1.16079 129.493 0.98564C129.49 0.835666 129.518 0.686898 129.576 0.550386C129.628 0.422813 129.71 0.312328 129.815 0.230347C129.016 0.870425 128.217 1.57451 127.431 2.24659C127.333 2.32007 127.256 2.42226 127.21 2.54103C127.162 2.66685 127.138 2.80179 127.139 2.93788C127.141 3.09712 127.167 3.25494 127.216 3.40514C127.275 3.59009 127.355 3.76641 127.455 3.93L128.486 5.76063L130.995 4.06442L129.839 2.07377Z" fill="#113E74"/>
<path fill-rule="evenodd" clip-rule="evenodd" d="M130.995 4.07727L128.492 5.76068L129.535 7.5593L132.127 6.02311L130.995 4.07727Z" fill="#061931"/>
<path fill-rule="evenodd" clip-rule="evenodd" d="M145.931 7.31608C145.755 6.6823 145.492 6.08035 145.15 5.53026C144.971 5.23893 144.772 4.96287 144.554 4.70456L144.506 4.64696C144.24 4.32815 143.949 4.03475 143.636 3.77005C143.356 3.51206 143.057 3.27875 142.742 3.07236C142.421 2.87769 142.089 2.70661 141.747 2.5603C141.403 2.41168 141.051 2.28766 140.692 2.18905L140.096 2.05464H140.06C139.869 2.01623 139.679 1.99063 139.464 1.96502C139.447 1.95868 139.428 1.95868 139.41 1.96502C139.232 1.96502 139.041 1.92662 138.862 1.91382H138.212C138.01 1.91382 137.789 1.91382 137.581 1.91382C137.378 1.91382 137.175 1.91382 136.985 1.96502C136.788 1.96502 136.585 2.00983 136.389 2.04183H136.353C136.15 2.07384 135.948 2.11224 135.757 2.15705L135.161 2.29787H135.113C134.922 2.35547 134.732 2.40668 134.547 2.47069C134.35 2.52829 134.16 2.5987 133.951 2.66271H133.909C133.725 2.72672 133.54 2.80353 133.361 2.87394C133.176 2.94434 132.997 3.02756 132.819 3.10436C132.64 3.18758 132.455 3.27079 132.282 3.3604C132.109 3.44361 131.937 3.53322 131.77 3.63563C131.597 3.73164 131.436 3.82765 131.281 3.93007H131.12L132.252 5.88231C132.36 5.94631 132.467 5.99752 132.568 6.04873C132.67 6.09993 132.759 6.13194 132.848 6.17034L133.081 6.25355L133.26 6.31116H133.397C133.778 6.08958 134.177 5.90534 134.589 5.76069C135.071 5.58838 135.565 5.45991 136.067 5.37664C136.6 5.27973 137.141 5.23687 137.682 5.24863C138.233 5.25555 138.78 5.33072 139.315 5.47266C139.538 5.53666 139.752 5.60707 139.959 5.68388C140.174 5.76832 140.383 5.86885 140.584 5.98472C140.793 6.09414 140.992 6.22263 141.18 6.36877C141.374 6.50988 141.557 6.66605 141.729 6.83602C142.24 7.29596 142.617 7.90506 142.814 8.58984C142.945 9.09224 142.945 9.62363 142.814 10.126C142.714 10.5241 142.555 10.9024 142.343 11.2462C142.24 11.4161 142.124 11.5766 141.997 11.7262C142.127 11.8747 142.267 12.0137 142.414 12.1423C142.569 12.2767 142.724 12.3983 142.891 12.5199C143.058 12.6365 143.231 12.7433 143.41 12.84C143.588 12.9296 143.779 13.0448 143.964 13.1408L146.199 8.02017C146.162 7.72139 146.105 7.42608 146.026 7.13686" fill="#0E3463"/>
</g>
<defs>
<clipPath id="clip0_49_698">
<rect width="149" height="39" fill="white"/>
</clipPath>
</defs>
</svg>
