<svg id="Camada_1" data-name="Camada 1" xmlns="http://www.w3.org/2000/svg" viewBox="0 0 500 375"><defs><style>.cls-1{fill:#efede1;}.cls-2{opacity:0.5;}.cls-3{fill:#b62234;}.cls-10,.cls-3,.cls-4,.cls-5,.cls-6,.cls-7,.cls-8,.cls-9{fill-rule:evenodd;}.cls-4{fill:#4f4c4d;}.cls-5{fill:#1c63b7;}.cls-6{fill:#d3d2d2;}.cls-7{fill:#7b7979;}.cls-8{fill:#113e74;}.cls-9{fill:#061931;}.cls-10{fill:#0e3463;}</style></defs><title>no-image-43</title><rect class="cls-1" width="500" height="375"/><g id="g10" class="cls-2"><g id="g12"><g id="g14"><g id="g20"><path id="path22" class="cls-3" d="M162,193.55a7.41,7.41,0,0,1-5.6,2h-8.61V179.7h9.05a6.82,6.82,0,0,1,5.29,2,8.59,8.59,0,0,1,1.76,6,8.14,8.14,0,0,1-1.9,5.89m-4.78-26.07h-22.4a1.56,1.56,0,0,0-1.14.46,1.51,1.51,0,0,0-.46,1.08v37.19a1.51,1.51,0,0,0,.46,1.08,1.64,1.64,0,0,0,1.14.46h22.6a20.07,20.07,0,0,0,14.7-5.64,19.71,19.71,0,0,0,5.78-14.5,19.34,19.34,0,0,0-5.69-14.53,20.71,20.71,0,0,0-15-5.6"/></g><g id="g24"><path id="path26" class="cls-3" d="M292.23,167.48H280.15a1.84,1.84,0,0,0-1.4.77l-13.3,21.84L252,168.25a1.31,1.31,0,0,0-.6-.54,1.73,1.73,0,0,0-.74-.23h-12a1.53,1.53,0,0,0-1.12.46,1.51,1.51,0,0,0-.46,1.08v37.19a1.47,1.47,0,0,0,.46,1.08,1.59,1.59,0,0,0,1.12.46h10.29a1.56,1.56,0,0,0,1.12-.46,1.43,1.43,0,0,0,.46-1.08V186.15l11.09,20.72a1.78,1.78,0,0,0,.63.62,1.4,1.4,0,0,0,.77.26h4.82a1.45,1.45,0,0,0,.78-.26,1.65,1.65,0,0,0,.61-.62l11.15-20.72v20.06a1.46,1.46,0,0,0,.44,1.08,1.56,1.56,0,0,0,1.13.46h10.27a1.58,1.58,0,0,0,1.2-.46,1.42,1.42,0,0,0,.45-1.08V169a1.47,1.47,0,0,0-.45-1.07,1.56,1.56,0,0,0-1.13-.46"/></g><g id="g28"><path id="path30" class="cls-3" d="M333.07,197.11H314.4V192.8l14.75-.05a1.47,1.47,0,0,0,1.07-.47,1.5,1.5,0,0,0,.46-1.12v-7.4a1.59,1.59,0,0,0-1.54-1.54H314.4v-4.1h17.25a1.59,1.59,0,0,0,1.55-1.59V169a1.48,1.48,0,0,0-.46-1.07,1.47,1.47,0,0,0-1.09-.46H301.73a1.45,1.45,0,0,0-1.09.46,1.51,1.51,0,0,0-.46,1.08v37.19a1.47,1.47,0,0,0,.46,1.08,1.55,1.55,0,0,0,1.09.46h31.33a1.49,1.49,0,0,0,1.11-.46,1.55,1.55,0,0,0,.43-1.08v-7.5a1.59,1.59,0,0,0-.43-1.12,1.51,1.51,0,0,0-1.11-.48"/></g><g id="g32"><path id="path34" class="cls-3" d="M370.28,186.27c-2-2.05-5.86-3.62-11.4-4.72a38.94,38.94,0,0,1-4-.9c-1.13-.32-2.1-.62-2.87-.9s-1.28-.7-1.28-1.28.42-1,1.26-1.24a13.71,13.71,0,0,1,3.56-.35,25.09,25.09,0,0,1,6.83,1.07c1.26.38,2.49.8,3.65,1.24s2.28.91,3.33,1.43a1.4,1.4,0,0,0,1.6-.07,1.56,1.56,0,0,0,.61-1.52l-1-9a1.68,1.68,0,0,0-.38-.82,1.51,1.51,0,0,0-.75-.52,24,24,0,0,0-2.44-.61l-3.42-.7a43.71,43.71,0,0,0-7.65-.7q-8.24,0-12.81,3.34a11.43,11.43,0,0,0-4.61,9.81,10.57,10.57,0,0,0,3.75,8.63q3.45,2.88,12.33,4.67a22.86,22.86,0,0,1,6.06,1.74c.55.39.82.76.82,1.14,0,.7-.47,1.26-1.4,1.64a10,10,0,0,1-3.72.56,26.71,26.71,0,0,1-8.4-1.54,67.18,67.18,0,0,1-7-2.8,1.54,1.54,0,0,0-1.59.08,1.41,1.41,0,0,0-.63,1.46l.82,9.8a1.62,1.62,0,0,0,.42.87,1.51,1.51,0,0,0,.82.51l1.62.34c.7.15,1.54.31,2.54.48v-.05a4.32,4.32,0,0,0,.8.14l.9.16c1.46.24,3,.42,4.44.54s3,.19,4.49.19a30.18,30.18,0,0,0,7.58-.9,17.12,17.12,0,0,0,5.7-2.63,11.63,11.63,0,0,0,3.67-4.3,13.05,13.05,0,0,0,1.25-5.9,11.21,11.21,0,0,0-3.43-8.4"/></g><g id="g36"><path id="path38" class="cls-3" d="M107.06,167.73a1.55,1.55,0,0,0-.7-.64,1.9,1.9,0,0,0-.92-.28H97.87a2,2,0,0,0-.89.25,1.92,1.92,0,0,0-.7.63l-21,37.8a1.64,1.64,0,0,0-.28.8,1.21,1.21,0,0,0,.26.76,1.75,1.75,0,0,0,1.58.7h12.6a1.82,1.82,0,0,0,1-.28,1.57,1.57,0,0,0,.7-.65l10-19.93,6.3,12H99.59c-.47,0-2,.52-1.45,1.78l3.73,5.7a2.89,2.89,0,0,0,2.58,1.34H126.3a1.88,1.88,0,0,0,1.57-.67,1.32,1.32,0,0,0,.06-1.54Z"/></g><g id="g40"><path id="path42" class="cls-3" d="M209.94,167.73a1.61,1.61,0,0,0-.7-.64,2,2,0,0,0-.93-.28h-7.56a2,2,0,0,0-.9.25,1.84,1.84,0,0,0-.7.63l-21,37.8a1.39,1.39,0,0,0,0,1.56,1.81,1.81,0,0,0,1.6.7h12.6a1.91,1.91,0,0,0,1-.28,1.53,1.53,0,0,0,.66-.65L204,186.89l6.3,12h-7.86c-.46,0-2,.52-1.45,1.78l3.73,5.7a2.93,2.93,0,0,0,2.58,1.34h21.86a1.83,1.83,0,0,0,1.55-.67,1.29,1.29,0,0,0,.06-1.54Z"/></g><g id="g44"><path id="path46" class="cls-4" d="M139.23,219.79a39.32,39.32,0,0,0,.17,4.2h0a31.61,31.61,0,0,0-1.63-3.43l-2.1-3.68H133v10h2.1v-3c0-1.64,0-3-.11-4.39h.06A34.28,34.28,0,0,0,136.8,223l2.15,3.87h2.38v-10h-2.1Z"/></g><g id="g48"><path id="path50" class="cls-4" d="M157.52,222.62c0,1.79-.65,2.63-1.84,2.63s-1.82-.88-1.82-2.63v-5.75H151.6v5.6c0,3.19,1.47,4.59,4,4.59s4.2-1.48,4.2-4.56v-5.6h-2.29Z"/></g><g id="g52"><path id="path54" class="cls-4" d="M169.32,218.79H172v8.12h2.25v-8.12H177v-1.92h-7.7Z"/></g><g id="g56"><path id="path58" class="cls-4" d="M190.16,221.29a3.53,3.53,0,0,1-.46,0h-.88v-2.75a4,4,0,0,1,1-.08,1.71,1.71,0,0,1,.32,0,1.32,1.32,0,0,1,1.35,1.28v.12a1.41,1.41,0,0,1-1.35,1.4m1.84.9v0a2.64,2.64,0,0,0,1.76-2.46,2.49,2.49,0,0,0-.94-2.1,4.49,4.49,0,0,0-2.66-.78h-.56a19.09,19.09,0,0,0-3,.21v9.9h2.23v-3.95h.66a1.84,1.84,0,0,1,.7.11c.5.15.78.59,1,1.48a13.9,13.9,0,0,0,.7,2.36h2.32c-.19-.4-.49-1.71-.8-2.85a2.53,2.53,0,0,0-1.34-1.87"/></g><path id="path60" class="cls-4" d="M203.73,226.91H206v-10h-2.27Z"/><g id="g62"><path id="path64" class="cls-4" d="M221.41,218.59a4.69,4.69,0,0,1,1.89.37l.46-1.78a5.43,5.43,0,0,0-2.45-.45,5.11,5.11,0,0,0-5.47,4.72,5.81,5.81,0,0,0,0,.59,4.66,4.66,0,0,0,4.29,5l-.59,1.24c.82.08,1.17.24,1.17.54s-.23.37-.53.37a2,2,0,0,1-.84-.21l-.3.93a2.86,2.86,0,0,0,1.29.28c.84,0,1.77-.34,1.77-1.4a1.26,1.26,0,0,0-1.08-1.21l.28-.51a6,6,0,0,0,2.33-.42l-.33-1.79a5.06,5.06,0,0,1-1.89.34,3.3,3.3,0,0,1,0-6.6"/></g><g id="g66"><path id="path68" class="cls-4" d="M237.43,222.62h-1.11l.6-2.1c.16-.58.31-1.33.45-1.92h0v.08c.14.58.31,1.29.49,1.84l.61,2.1Zm0-5.75H236l-3.06,10h2.36l.7-2.58h2.87l.77,2.58h2.44l-3.12-10Z"/></g><g id="g70"><path id="path72" class="cls-4" d="M236.92,215.62a1.07,1.07,0,0,1,.51.2l.14.08a2,2,0,0,0,1,.27c.78,0,1.18-.52,1.16-1.86h-1c-.06.5-.15.64-.4.64a1.47,1.47,0,0,1-.65-.29l-.19-.09a1.54,1.54,0,0,0-.76-.2c-.7,0-1.18.65-1.15,1.9h1c0-.44.17-.65.36-.65"/></g><g id="g74"><path id="path76" class="cls-4" d="M255.75,225.26h0c-1.5,0-2.43-1.4-2.43-3.36s.89-3.4,2.43-3.41h0c1.57,0,2.41,1.55,2.41,3.36,0,2-.87,3.4-2.41,3.4m.05-8.56h-.06a4.83,4.83,0,0,0-4.83,4.84c0,.14,0,.27,0,.41a4.68,4.68,0,0,0,4.23,5.09,2.57,2.57,0,0,0,.48,0h.1c2.89-.05,4.82-2,4.82-5.27a4.61,4.61,0,0,0-4.76-5.09"/></g><g id="g78"><path id="path80" class="cls-4" d="M285.49,222.62h-1.1l.59-2.1c.14-.58.31-1.33.46-1.92h0v.08c.14.58.31,1.29.48,1.84l.63,2.1Zm0-5.75h-1.44l-3.06,10h2.35l.7-2.58h2.87l.79,2.58h2.45l-3.12-10Z"/></g><g id="g82"><path id="path84" class="cls-4" d="M306,219.79q0,2.1.18,4.2h0a32.7,32.7,0,0,0-1.64-3.43l-2.1-3.68h-2.65v10h2.1v-3c0-1.64,0-3-.11-4.39h.06c.52,1.21,1.11,2.39,1.75,3.55l2.15,3.87h2.33v-10H306Z"/></g><path id="path86" class="cls-4" d="M318.43,226.91h2.27v-10h-2.26Z"/><g id="g88"><path id="path90" class="cls-4" d="M338.32,216.87l-1.05,3.33c-.35,1.12-.7,2.44-1,3.61h-.06c-.22-1.19-.52-2.44-.85-3.59l-1-3.35h-3l-.64,10h2.1l.19-3.83c.07-1.24.11-2.8.16-4.15h0c.26,1.33.58,2.75.92,3.94l1.06,3.87H337l1.21-3.92c.4-1.18.81-2.61,1.14-3.89h0c0,1.47.05,2.92.09,4.13l.17,3.84h2.19l-.53-10Z"/></g><g id="g92"><path id="path94" class="cls-4" d="M355.63,222.62h-1.11l.6-2.1c.16-.58.31-1.33.46-1.92h0v.08c.14.58.32,1.29.49,1.84l.61,2.1Zm0-5.75h-1.4l-3.05,10h2.33l.7-2.58h2.89l.77,2.58h2.45l-3.12-10Z"/></g><g id="g96"><path id="path98" class="cls-4" d="M372.22,225v-8.12H370v10h6.25V225Z"/></g><g id="g100"><path id="path102" class="cls-5" d="M425,147.13a2.35,2.35,0,0,0-.33-.88,2.29,2.29,0,0,0-.62-.66,2.68,2.68,0,0,0-.9-.39.94.94,0,0,1-.22-.07h-.74l-40.48-.28h0a3.08,3.08,0,0,0-1.51.35,1.86,1.86,0,0,0-.84,1,2.67,2.67,0,0,0-.11,1.48,5.41,5.41,0,0,0,.74,1.77l2.74,4.38.06,0h0l.06,0H383a36,36,0,0,1,10.78-4.1,31.09,31.09,0,0,1,5.93-.63,23.67,23.67,0,0,1,5.8.7,19.85,19.85,0,0,1,2.47.82,15.94,15.94,0,0,1,6.58,4.5A15.58,15.58,0,0,1,416,157a14.41,14.41,0,0,1,1.09,2,13.82,13.82,0,0,1,.74,1.94,16.21,16.21,0,0,1,.42,1.93l6.36-13.73c0-.07.06-.16.11-.24a1.55,1.55,0,0,0,.08-.23,1,1,0,0,0,.06-.23.83.83,0,0,0,.06-.21,4.09,4.09,0,0,0,.07-.6v-.41"/></g><g id="g104"><path id="path106" class="cls-6" d="M411.66,173.35l-1.23-.7a13,13,0,0,1-1.12-.83,9.35,9.35,0,0,1-1-.91,7,7,0,0,0,.81-1,8.5,8.5,0,0,0,1.12-2.45,6.35,6.35,0,0,0,0-3.35,8.38,8.38,0,0,0-2.54-3.84,11.67,11.67,0,0,0-1.3-1,11.53,11.53,0,0,0-1.4-.84,12.72,12.72,0,0,0-1.46-.65,13.78,13.78,0,0,0-1.51-.46,17.22,17.22,0,0,0-3.85-.5,20.9,20.9,0,0,0-3.79.28,22.79,22.79,0,0,0-3.47.84,17.9,17.9,0,0,0-2.86,1.21h-.32l-.42-.12-.55-.19-.66-.26c-.23-.11-.48-.23-.74-.37l17.2,27.52a4.76,4.76,0,0,0,.53.74,5.12,5.12,0,0,0,.56.58,3.22,3.22,0,0,0,.58.38,2.34,2.34,0,0,0,.59.23,2.06,2.06,0,0,0,.7,0,2,2,0,0,0,.7-.25,2.51,2.51,0,0,0,.6-.53,3.5,3.5,0,0,0,.49-.81l5.6-12c-.44-.21-.88-.42-1.3-.66"/></g><g id="g108"><path id="path110" class="cls-7" d="M405.34,187.64h-.47a2,2,0,0,1-.59-.22,3.27,3.27,0,0,1-.58-.39,4.31,4.31,0,0,1-.56-.57,6.23,6.23,0,0,1-.54-.8L385.38,158l-6.1,3.36,15.84,25.35a4.65,4.65,0,0,0,.49.7,3.58,3.58,0,0,0,.51.52,2.54,2.54,0,0,0,.54.36,1.63,1.63,0,0,0,.53.21h.61l7.7-.92h-.16"/></g><g id="g112"><path id="path114" class="cls-8" d="M380,149.38a5.83,5.83,0,0,1-.6-1.26,3.58,3.58,0,0,1-.21-1.12,2.32,2.32,0,0,1,.19-.94,1.83,1.83,0,0,1,.56-.7c-1.86,1.46-3.75,2.93-5.65,4.4a1.58,1.58,0,0,0-.51.64,2,2,0,0,0-.17.87,3.27,3.27,0,0,0,.17,1,6.79,6.79,0,0,0,.56,1.15l2.49,4v.05l5.89-3.71Z"/></g><g id="g116"><path id="path118" class="cls-9" d="M382.72,153.76l-5.88,3.69,2.45,3.93,6.09-3.36Z"/></g><g id="g120"><path id="path122" class="cls-10" d="M417.8,160.85a13.65,13.65,0,0,0-.75-2,14.29,14.29,0,0,0-1.09-1.95,18.61,18.61,0,0,0-1.4-1.81l-.1-.12a17.36,17.36,0,0,0-2-1.92,19,19,0,0,0-2.15-1.53,18.12,18.12,0,0,0-2.34-1.15,17.83,17.83,0,0,0-2.47-.81c-.47-.12-.93-.22-1.4-.3H404c-.45-.09-.9-.14-1.35-.2h-.13c-.42,0-.87-.08-1.29-.11h-1.57c-.48,0-1,0-1.48,0h0c-.47,0-.95.07-1.4.11h-.07c-.47,0-.93.1-1.4.18h-.09c-.47.06-.94.15-1.4.24h0l-1.4.32h-.1l-1.34.37h-.06c-.45.13-.9.28-1.34.42h0l-.1,0h0l-1.28.46h0c-.44.16-.86.34-1.28.51h0l-1.26.56-.06,0c-.41.19-.81.38-1.2.6h-.06c-.41.21-.79.42-1.16.64H383l-.06,0h-.05l-.06,0,2.65,4.28c.26.14.52.25.75.37s.45.18.65.26l.55.18.42.12h.32a18.51,18.51,0,0,1,2.87-1.2,22.41,22.41,0,0,1,7.26-1.12,16.64,16.64,0,0,1,3.84.5c.51.14,1,.28,1.51.46a11.19,11.19,0,0,1,1.46.65,9.44,9.44,0,0,1,1.4.84,11.67,11.67,0,0,1,1.3,1,8.37,8.37,0,0,1,2.55,3.84,6.38,6.38,0,0,1,0,3.36,8.62,8.62,0,0,1-1.12,2.45,8.16,8.16,0,0,1-.81,1.05,10.56,10.56,0,0,0,1,.91,12.86,12.86,0,0,0,1.12.82,11.46,11.46,0,0,0,1.23.7c.42.21.86.45,1.3.66l5.25-11.2a15.61,15.61,0,0,0-.41-1.92"/></g></g></g></g></svg>